<?xml version="1.0" standalone="no"?>
<!DOCTYPE svg PUBLIC "-//W3C//DTD SVG 20010904//EN"
 "http://www.w3.org/TR/2001/REC-SVG-20010904/DTD/svg10.dtd">
<svg version="1.0" xmlns="http://www.w3.org/2000/svg"
 width="500.000000pt" height="500.000000pt" viewBox="0 0 500.000000 500.000000"
 preserveAspectRatio="xMidYMid meet">

<g transform="translate(0.000000,500.000000) scale(0.100000,-0.100000)"
fill="#000000" stroke="none">
<path d="M3165 4387 c-16 -12 -37 -28 -45 -36 -18 -17 -170 -130 -299 -221
-51 -36 -98 -69 -104 -75 -7 -5 -38 -29 -69 -53 -32 -23 -65 -56 -73 -72 -13
-25 -15 -190 -15 -1357 l1 -1328 72 76 c133 140 306 324 324 346 21 24 128
143 192 213 23 25 43 54 46 65 3 11 4 570 3 1242 l-3 1221 -30 -21z"/>
<path d="M1800 2723 l0 -798 53 -55 c29 -30 86 -93 127 -140 41 -47 120 -132
175 -190 55 -58 139 -148 187 -200 l87 -95 1 888 c0 967 3 923 -56 962 -15 10
-37 26 -48 37 -30 26 -196 152 -291 220 -44 31 -85 60 -90 65 -24 19 -121 91
-132 97 -10 6 -13 -155 -13 -791z"/>
<path d="M4110 2499 c0 -5 5 -7 10 -4 6 3 10 8 10 11 0 2 -4 4 -10 4 -5 0 -10
-5 -10 -11z"/>
<path d="M860 2255 c0 -15 4 -24 10 -20 6 3 10 12 10 20 0 8 -4 17 -10 20 -6
4 -10 -5 -10 -20z"/>
<path d="M860 2005 c0 -15 4 -24 10 -20 6 3 10 12 10 20 0 8 -4 17 -10 20 -6
4 -10 -5 -10 -20z"/>
<path d="M860 1748 c0 -19 2 -20 10 -8 13 19 13 30 0 30 -5 0 -10 -10 -10 -22z"/>
<path d="M1725 1722 c-35 -32 -186 -155 -235 -192 -18 -14 -63 -50 -100 -80
-36 -30 -83 -68 -104 -85 -21 -16 -71 -56 -110 -89 -39 -32 -80 -66 -91 -75
-11 -9 -40 -32 -65 -51 -69 -53 -80 -64 -80 -72 0 -5 326 -8 725 -8 487 1 725
5 725 11 0 9 -203 233 -371 410 -24 25 -89 94 -143 153 -54 58 -104 106 -110
106 -6 0 -24 -13 -41 -28z"/>
<path d="M3114 1643 c-54 -59 -112 -121 -129 -138 -29 -29 -146 -157 -237
-260 -24 -27 -64 -70 -90 -97 -52 -53 -56 -63 -33 -72 18 -6 1435 -8 1435 -2
0 3 -33 31 -72 63 -40 32 -75 60 -78 63 -3 3 -25 21 -50 40 -25 19 -50 39 -56
45 -29 28 -183 151 -299 240 -49 38 -131 104 -182 147 -51 43 -96 78 -101 78
-5 0 -53 -48 -108 -107z"/>
<path d="M860 1498 c0 -12 1 -19 3 -17 1 2 9 12 16 22 12 14 11 17 -3 17 -10
0 -16 -8 -16 -22z"/>
<path d="M4106 1505 c4 -8 8 -15 10 -15 2 0 4 7 4 15 0 8 -4 15 -10 15 -5 0
-7 -7 -4 -15z"/>
<path d="M860 1270 c0 -13 18 -22 24 -11 3 5 -1 11 -9 15 -8 3 -15 1 -15 -4z"/>
<path d="M1300 510 c0 -5 7 -10 15 -10 8 0 15 5 15 10 0 6 -7 10 -15 10 -8 0
-15 -4 -15 -10z"/>
<path d="M2615 500 c3 -5 10 -10 16 -10 5 0 9 5 9 10 0 6 -7 10 -16 10 -8 0
-12 -4 -9 -10z"/>
<path d="M4070 500 c0 -5 7 -10 15 -10 8 0 15 5 15 10 0 6 -7 10 -15 10 -8 0
-15 -4 -15 -10z"/>
<path d="M1724 370 c0 -74 1 -105 3 -67 2 37 2 97 0 135 -2 37 -3 6 -3 -68z"/>
<path d="M173 370 c0 -36 2 -50 4 -32 2 17 2 47 0 65 -2 17 -4 3 -4 -33z"/>
<path d="M4626 376 c3 -9 11 -16 16 -16 13 0 5 23 -10 28 -7 2 -10 -2 -6 -12z"/>
<path d="M751 354 c0 -11 3 -14 6 -6 3 7 2 16 -1 19 -3 4 -6 -2 -5 -13z"/>
<path d="M4276 264 c-3 -8 -10 -12 -16 -9 -5 3 -7 0 -4 -9 3 -8 12 -17 20 -20
10 -4 14 3 14 24 0 33 -5 38 -14 14z"/>
<path d="M2813 253 c-18 -7 -16 -23 2 -23 8 0 15 7 15 15 0 8 -1 15 -2 14 -2
0 -9 -3 -15 -6z"/>
<path d="M4625 230 c3 -5 8 -10 11 -10 2 0 4 5 4 10 0 6 -5 10 -11 10 -5 0 -7
-4 -4 -10z"/>
</g>
</svg>
